<svg xmlns="http://www.w3.org/2000/svg" viewBox="0 0 2864 1610"><filter id="b"><feGaussianBlur stdDeviation="12" /></filter><path fill="#627677" d="M0 0h2864v1599H0z"/><g filter="url(#b)" transform="translate(5.6 5.6) scale(11.1875)" fill-opacity=".5"><path fill="#c5ecff" d="M271-9L12 14l172 49z"/><ellipse fill="#39413a" rx="1" ry="1" transform="matrix(244.82878 71.30126 -14.81647 50.87564 89.5 118.3)"/><path fill="#fff" d="M200-16l54 29-96-1z"/><ellipse fill="#728e94" rx="1" ry="1" transform="matrix(63.61818 23.353 -14.66747 39.95708 135.6 62.5)"/><ellipse fill="#333a35" cx="1" cy="139" rx="38" ry="198"/><path fill="#3a4644" d="M295.4 127.8l-56.3 32.5-40.5-70.1 56.3-32.5z"/><ellipse fill="#6c8ea0" rx="1" ry="1" transform="matrix(75.14365 -31.70398 6.18112 14.65028 217.7 39)"/><ellipse fill="#fff" cx="206" cy="8" rx="35" ry="7"/></g></svg>